<svg width="45" height="12" viewBox="0 0 45 12" fill="none" xmlns="http://www.w3.org/2000/svg">
<path d="M4.73295 2.03125C2.46591 2.03125 0.835227 3.68182 0.835227 6.06818C0.835227 8.45455 2.46591 10.0852 4.73295 10.0852H4.93182V11.4176H6.16477V10.0852H6.34375C8.6108 10.0852 10.2415 8.43466 10.2415 6.0483C10.2415 3.66193 8.6108 2.03125 6.34375 2.03125H6.16477V0.639205H4.93182V2.03125H4.73295ZM4.73295 3.125H4.93182V8.99148H4.73295C3.00284 8.99148 2.06818 7.83807 2.06818 6.06818C2.06818 4.27841 3.00284 3.125 4.73295 3.125ZM6.16477 3.125H6.34375C8.07386 3.125 9.00852 4.27841 9.00852 6.0483C9.00852 7.83807 8.07386 8.99148 6.34375 8.99148H6.16477V3.125ZM13.3214 9.26989V3.36364H12.1481V11H13.5202L17.1793 5.09375V11H18.3526V3.36364H17.0004L13.3214 9.26989ZM19.8255 11H20.2232C21.9135 11 22.4007 9.6875 22.5101 7.18182L22.6294 4.45739H25.4334V11H26.6067V3.36364H21.5158L21.3766 6.74432C21.2772 9.30966 21.0186 9.90625 20.1039 9.90625H19.8255V11ZM29.9327 6.12784V3.36364H28.7594V11H31.9611C33.7509 11 34.7253 9.90625 34.7253 8.53409C34.7253 7.14205 33.7509 6.12784 31.9611 6.12784H29.9327ZM29.9327 7.22159H31.9611C32.8908 7.22159 33.552 7.78835 33.552 8.59375C33.552 9.36435 32.8908 9.90625 31.9611 9.90625H29.9327V7.22159ZM40.6875 9.40909L38.0625 3.36364H36.5114V11H37.6847V5.04901L40.2102 11H41.1648L43.6903 5.15838V11H44.8636V3.36364H43.3523L40.6875 9.40909Z" fill="#A0A0A0"/>
</svg>
