<svg width="104" height="34" viewBox="0 0 104 34" fill="none" xmlns="http://www.w3.org/2000/svg">
<path fill-rule="evenodd" clip-rule="evenodd" d="M18.7929 18.2638C17.361 19.6957 15.0394 19.6957 13.6075 18.2638C12.1755 16.8318 12.1755 14.5102 13.6075 13.0783C15.0394 11.6464 17.361 11.6464 18.7929 13.0783C20.2248 14.5102 20.2248 16.8318 18.7929 18.2638ZM19.2333 19.6467C17.2731 21.1461 14.4575 20.9994 12.6647 19.2066C10.712 17.254 10.712 14.0881 12.6647 12.1355C14.6173 10.1829 17.7831 10.1829 19.7357 12.1355C21.5285 13.9283 21.6753 16.7437 20.1761 18.7039L23.7428 22.2706L22.8 23.2134L19.2333 19.6467Z" fill="#959595"/>
<path d="M50.0852 11.4688C47.1705 11.4688 45.0739 13.5909 45.0739 16.6591C45.0739 19.7273 47.1705 21.8239 50.0852 21.8239H50.3409V23.5369H51.9261V21.8239H52.1562C55.071 21.8239 57.1676 19.7017 57.1676 16.6335C57.1676 13.5653 55.071 11.4688 52.1562 11.4688H51.9261V9.67898H50.3409V11.4688H50.0852ZM50.0852 12.875H50.3409V20.4176H50.0852C47.8608 20.4176 46.6591 18.9347 46.6591 16.6591C46.6591 14.358 47.8608 12.875 50.0852 12.875ZM51.9261 12.875H52.1562C54.3807 12.875 55.5824 14.358 55.5824 16.6335C55.5824 18.9347 54.3807 20.4176 52.1562 20.4176H51.9261V12.875ZM61.1275 20.7756V13.1818H59.619V23H61.3832L66.0877 15.4062V23H67.5962V13.1818H65.8576L61.1275 20.7756ZM69.4899 23H70.0012C72.1745 23 72.801 21.3125 72.9416 18.0909L73.095 14.5881H76.7001V23H78.2086V13.1818H71.6632L71.4842 17.5284C71.3564 20.8267 71.024 21.5938 69.8478 21.5938H69.4899V23ZM82.4849 16.7358V13.1818H80.9764V23H85.0929C87.394 23 88.6468 21.5938 88.6468 19.8295C88.6468 18.0398 87.394 16.7358 85.0929 16.7358H82.4849ZM82.4849 18.142H85.0929C86.2882 18.142 87.1383 18.8707 87.1383 19.9062C87.1383 20.897 86.2882 21.5938 85.0929 21.5938H82.4849V18.142ZM96.3125 20.9545L92.9375 13.1818H90.9432V23H92.4517V15.3487L95.6989 23H96.9261L100.173 15.4893V23H101.682V13.1818H99.7386L96.3125 20.9545Z" fill="#A0A0A0"/>
</svg>
